<?xml version="1.0" encoding="UTF-8" standalone="no"?>
<!DOCTYPE svg PUBLIC "-//W3C//DTD SVG 1.1//EN"
 "http://www.w3.org/Graphics/SVG/1.1/DTD/svg11.dtd">
<!-- Generated by graphviz version 2.40.1 (0)
 -->
<!-- Title: RSConnectJupyter Pages: 1 -->
<svg width="610pt" height="1492pt"
 viewBox="0.00 0.00 610.27 1492.00" xmlns="http://www.w3.org/2000/svg" xmlns:xlink="http://www.w3.org/1999/xlink">
<g id="graph0" class="graph" transform="scale(1 1) rotate(0) translate(4 1488)">
<title>RSConnectJupyter</title>
<polygon fill="#ffffff" stroke="transparent" points="-4,4 -4,-1488 606.2703,-1488 606.2703,4 -4,4"/>
<!-- Publish -->
<g id="node1" class="node">
<title>Publish</title>
<ellipse fill="none" stroke="#000000" cx="180" cy="-1466" rx="43.5923" ry="18"/>
<text text-anchor="middle" x="180" y="-1462.3" font-family="Times-Roman" font-size="14.00" fill="#000000">Publish</text>
</g>
<!-- Save\nDocument -->
<g id="node3" class="node">
<title>Save\nDocument</title>
<polygon fill="none" stroke="#000000" points="180,-1412 92,-1374 180,-1336 268,-1374 180,-1412"/>
<text text-anchor="middle" x="180" y="-1377.8" font-family="Times-Roman" font-size="14.00" fill="#000000">Save</text>
<text text-anchor="middle" x="180" y="-1362.8" font-family="Times-Roman" font-size="14.00" fill="#000000">Document</text>
</g>
<!-- Publish&#45;&gt;Save\nDocument -->
<g id="edge1" class="edge">
<title>Publish&#45;&gt;Save\nDocument</title>
<path fill="none" stroke="#000000" d="M180,-1447.8238C180,-1440.4425 180,-1431.5303 180,-1422.4895"/>
<polygon fill="#000000" stroke="#000000" points="183.5001,-1422.3022 180,-1412.3023 176.5001,-1422.3023 183.5001,-1422.3022"/>
</g>
<!-- Done -->
<g id="node2" class="node">
<title>Done</title>
<ellipse fill="none" stroke="#000000" cx="221" cy="-18" rx="34.394" ry="18"/>
<text text-anchor="middle" x="221" y="-14.3" font-family="Times-Roman" font-size="14.00" fill="#000000">Done</text>
</g>
<!-- Failure -->
<g id="node12" class="node">
<title>Failure</title>
<polygon fill="none" stroke="#000000" points="168,-1300 106,-1300 106,-1264 168,-1264 168,-1300"/>
<text text-anchor="middle" x="137" y="-1278.3" font-family="Times-Roman" font-size="14.00" fill="#000000">Failure</text>
</g>
<!-- Save\nDocument&#45;&gt;Failure -->
<g id="edge2" class="edge">
<title>Save\nDocument&#45;&gt;Failure</title>
<path fill="none" stroke="#000000" d="M165.2018,-1342.3388C160.1943,-1331.625 154.6478,-1319.7582 149.808,-1309.4032"/>
<polygon fill="#000000" stroke="#000000" points="152.83,-1307.6027 145.4249,-1300.0254 146.4884,-1310.5667 152.83,-1307.6027"/>
</g>
<!-- Success -->
<g id="node14" class="node">
<title>Success</title>
<polygon fill="none" stroke="#000000" points="267.5,-1300 194.5,-1300 194.5,-1264 267.5,-1264 267.5,-1300"/>
<text text-anchor="middle" x="231" y="-1278.3" font-family="Times-Roman" font-size="14.00" fill="#000000">Success</text>
</g>
<!-- Save\nDocument&#45;&gt;Success -->
<g id="edge5" class="edge">
<title>Save\nDocument&#45;&gt;Success</title>
<path fill="none" stroke="#000000" d="M197.1241,-1343.1094C203.2566,-1332.0468 210.1162,-1319.6727 216.0503,-1308.9681"/>
<polygon fill="#000000" stroke="#000000" points="219.1981,-1310.5086 220.9854,-1300.0656 213.0758,-1307.1147 219.1981,-1310.5086"/>
</g>
<!-- Server\nmetadata? -->
<g id="node4" class="node">
<title>Server\nmetadata?</title>
<polygon fill="none" stroke="#000000" points="274,-1228 184,-1190 274,-1152 364,-1190 274,-1228"/>
<text text-anchor="middle" x="274" y="-1193.8" font-family="Times-Roman" font-size="14.00" fill="#000000">Server</text>
<text text-anchor="middle" x="274" y="-1178.8" font-family="Times-Roman" font-size="14.00" fill="#000000">metadata?</text>
</g>
<!-- No -->
<g id="node15" class="node">
<title>No</title>
<polygon fill="none" stroke="#000000" points="410,-1116 356,-1116 356,-1080 410,-1080 410,-1116"/>
<text text-anchor="middle" x="383" y="-1094.3" font-family="Times-Roman" font-size="14.00" fill="#000000">No</text>
</g>
<!-- Server\nmetadata?&#45;&gt;No -->
<g id="edge7" class="edge">
<title>Server\nmetadata?&#45;&gt;No</title>
<path fill="none" stroke="#000000" d="M304.0733,-1164.6171C319.6349,-1151.4825 338.5465,-1135.5204 353.9563,-1122.514"/>
<polygon fill="#000000" stroke="#000000" points="356.2747,-1125.1372 361.6591,-1116.0125 351.7597,-1119.7879 356.2747,-1125.1372"/>
</g>
<!-- Yes -->
<g id="node16" class="node">
<title>Yes</title>
<polygon fill="none" stroke="#000000" points="301,-972 247,-972 247,-936 301,-936 301,-972"/>
<text text-anchor="middle" x="274" y="-950.3" font-family="Times-Roman" font-size="14.00" fill="#000000">Yes</text>
</g>
<!-- Server\nmetadata?&#45;&gt;Yes -->
<g id="edge8" class="edge">
<title>Server\nmetadata?&#45;&gt;Yes</title>
<path fill="none" stroke="#000000" d="M274,-1151.8202C274,-1104.4168 274,-1024.6599 274,-982.3486"/>
<polygon fill="#000000" stroke="#000000" points="277.5001,-982.1964 274,-972.1964 270.5001,-982.1965 277.5001,-982.1964"/>
</g>
<!-- Add Server Dialog -->
<g id="node5" class="node">
<title>Add Server Dialog</title>
<polygon fill="none" stroke="#000000" points="602.041,-1044 385.6302,-1044 329.959,-1008 546.3698,-1008 602.041,-1044"/>
<text text-anchor="middle" x="466" y="-1022.3" font-family="Times-Roman" font-size="14.00" fill="#000000">Add Server Dialog</text>
</g>
<!-- Add -->
<g id="node6" class="node">
<title>Add</title>
<polygon fill="none" stroke="#000000" points="427,-972 386.6141,-954 427,-936 467.3859,-954 427,-972"/>
<text text-anchor="middle" x="427" y="-950.3" font-family="Times-Roman" font-size="14.00" fill="#000000">Add</text>
</g>
<!-- Add Server Dialog&#45;&gt;Add -->
<g id="edge10" class="edge">
<title>Add Server Dialog&#45;&gt;Add</title>
<path fill="none" stroke="#000000" d="M456.1587,-1007.8314C451.1654,-998.613 445.0417,-987.3078 439.6974,-977.4414"/>
<polygon fill="#000000" stroke="#000000" points="442.715,-975.6637 434.8746,-968.5378 436.56,-978.9977 442.715,-975.6637"/>
</g>
<!-- Cancel -->
<g id="node17" class="node">
<title>Cancel</title>
<polygon fill="none" stroke="#000000" points="555.5,-324 492.5,-324 492.5,-288 555.5,-288 555.5,-324"/>
<text text-anchor="middle" x="524" y="-302.3" font-family="Times-Roman" font-size="14.00" fill="#000000">Cancel</text>
</g>
<!-- Add Server Dialog&#45;&gt;Cancel -->
<g id="edge11" class="edge">
<title>Add Server Dialog&#45;&gt;Cancel</title>
<path fill="none" stroke="#000000" d="M500.597,-1007.9586C540.0043,-984.6334 599,-940.0242 599,-882 599,-882 599,-882 599,-450 599,-404.7853 569.5542,-359.6965 547.5632,-332.3276"/>
<polygon fill="#000000" stroke="#000000" points="550.0916,-329.8931 541.0187,-324.4221 544.6996,-334.357 550.0916,-329.8931"/>
</g>
<!-- Invalid Details -->
<g id="node18" class="node">
<title>Invalid Details</title>
<polygon fill="none" stroke="#000000" points="552.5,-900 437.5,-900 437.5,-864 552.5,-864 552.5,-900"/>
<text text-anchor="middle" x="495" y="-878.3" font-family="Times-Roman" font-size="14.00" fill="#000000">Invalid Details</text>
</g>
<!-- Add&#45;&gt;Invalid Details -->
<g id="edge14" class="edge">
<title>Add&#45;&gt;Invalid Details</title>
<path fill="none" stroke="#000000" d="M439.157,-941.1278C447.91,-931.86 460.0123,-919.0459 470.7132,-907.7154"/>
<polygon fill="#000000" stroke="#000000" points="473.5176,-909.8434 477.8394,-900.1701 468.4285,-905.0371 473.5176,-909.8434"/>
</g>
<!-- Valid Details -->
<g id="node19" class="node">
<title>Valid Details</title>
<polygon fill="none" stroke="#000000" points="419,-900 317,-900 317,-864 419,-864 419,-900"/>
<text text-anchor="middle" x="368" y="-878.3" font-family="Times-Roman" font-size="14.00" fill="#000000">Valid Details</text>
</g>
<!-- Add&#45;&gt;Valid Details -->
<g id="edge15" class="edge">
<title>Add&#45;&gt;Valid Details</title>
<path fill="none" stroke="#000000" d="M416.1785,-940.7941C408.6294,-931.5817 398.3082,-918.9862 389.1549,-907.8161"/>
<polygon fill="#000000" stroke="#000000" points="391.7981,-905.5196 382.7526,-900.0032 386.3837,-909.9564 391.7981,-905.5196"/>
</g>
<!-- Publish Dialog -->
<g id="node7" class="node">
<title>Publish Dialog</title>
<polygon fill="none" stroke="#000000" points="446.6761,-756 272.206,-756 227.3239,-720 401.794,-720 446.6761,-756"/>
<text text-anchor="middle" x="337" y="-734.3" font-family="Times-Roman" font-size="14.00" fill="#000000">Publish Dialog</text>
</g>
<!-- Publish1 -->
<g id="node8" class="node">
<title>Publish1</title>
<polygon fill="none" stroke="#000000" points="306,-684 244.3328,-666 306,-648 367.6672,-666 306,-684"/>
<text text-anchor="middle" x="306" y="-662.3" font-family="Times-Roman" font-size="14.00" fill="#000000">Publish</text>
</g>
<!-- Publish Dialog&#45;&gt;Publish1 -->
<g id="edge20" class="edge">
<title>Publish Dialog&#45;&gt;Publish1</title>
<path fill="none" stroke="#000000" d="M329.1774,-719.8314C325.5032,-711.2978 321.059,-700.9758 317.0491,-691.6624"/>
<polygon fill="#000000" stroke="#000000" points="320.2474,-690.24 313.078,-682.4393 313.818,-693.0083 320.2474,-690.24"/>
</g>
<!-- Publish Dialog&#45;&gt;Cancel -->
<g id="edge19" class="edge">
<title>Publish Dialog&#45;&gt;Cancel</title>
<path fill="none" stroke="#000000" d="M406.9536,-723.8944C472.6778,-706.0809 561,-668.317 561,-594 561,-594 561,-594 561,-450 561,-408.4385 546.3628,-362.1923 535.501,-333.5961"/>
<polygon fill="#000000" stroke="#000000" points="538.7492,-332.2919 531.8467,-324.254 532.2302,-334.8419 538.7492,-332.2919"/>
</g>
<!-- Invalid1 -->
<g id="node21" class="node">
<title>Invalid1</title>
<polygon fill="none" stroke="#000000" points="453.5,-612 338.5,-612 338.5,-576 453.5,-576 453.5,-612"/>
<text text-anchor="middle" x="396" y="-590.3" font-family="Times-Roman" font-size="14.00" fill="#000000">Invalid Details</text>
</g>
<!-- Publish1&#45;&gt;Invalid1 -->
<g id="edge21" class="edge">
<title>Publish1&#45;&gt;Invalid1</title>
<path fill="none" stroke="#000000" d="M322.5074,-652.7941C334.4701,-643.2239 350.9965,-630.0028 365.3482,-618.5215"/>
<polygon fill="#000000" stroke="#000000" points="367.8737,-620.9832 373.496,-612.0032 363.5008,-615.5171 367.8737,-620.9832"/>
</g>
<!-- Valid1 -->
<g id="node22" class="node">
<title>Valid1</title>
<polygon fill="none" stroke="#000000" points="320,-612 218,-612 218,-576 320,-576 320,-612"/>
<text text-anchor="middle" x="269" y="-590.3" font-family="Times-Roman" font-size="14.00" fill="#000000">Valid Details</text>
</g>
<!-- Publish1&#45;&gt;Valid1 -->
<g id="edge22" class="edge">
<title>Publish1&#45;&gt;Valid1</title>
<path fill="none" stroke="#000000" d="M297.7885,-650.0209C293.4324,-641.5441 287.9603,-630.8957 282.9599,-621.1652"/>
<polygon fill="#000000" stroke="#000000" points="286.0458,-619.5126 278.3621,-612.2181 279.8198,-622.7122 286.0458,-619.5126"/>
</g>
<!-- Previous Title? -->
<g id="node9" class="node">
<title>Previous Title?</title>
<polygon fill="none" stroke="#000000" points="269,-540 162.2554,-522 269,-504 375.7446,-522 269,-540"/>
<text text-anchor="middle" x="269" y="-518.3" font-family="Times-Roman" font-size="14.00" fill="#000000">Previous Title?</text>
</g>
<!-- No2 -->
<g id="node23" class="node">
<title>No2</title>
<polygon fill="none" stroke="#000000" points="296,-468 242,-468 242,-432 296,-432 296,-468"/>
<text text-anchor="middle" x="269" y="-446.3" font-family="Times-Roman" font-size="14.00" fill="#000000">No</text>
</g>
<!-- Previous Title?&#45;&gt;No2 -->
<g id="edge25" class="edge">
<title>Previous Title?&#45;&gt;No2</title>
<path fill="none" stroke="#000000" d="M269,-503.8314C269,-496.131 269,-486.9743 269,-478.4166"/>
<polygon fill="#000000" stroke="#000000" points="272.5001,-478.4132 269,-468.4133 265.5001,-478.4133 272.5001,-478.4132"/>
</g>
<!-- Different Title -->
<g id="node24" class="node">
<title>Different Title</title>
<polygon fill="none" stroke="#000000" points="424,-468 314,-468 314,-432 424,-432 424,-468"/>
<text text-anchor="middle" x="369" y="-446.3" font-family="Times-Roman" font-size="14.00" fill="#000000">Different Title</text>
</g>
<!-- Previous Title?&#45;&gt;Different Title -->
<g id="edge26" class="edge">
<title>Previous Title?&#45;&gt;Different Title</title>
<path fill="none" stroke="#000000" d="M289.7201,-507.0816C302.9459,-497.559 320.3919,-484.9978 335.5504,-474.0837"/>
<polygon fill="#000000" stroke="#000000" points="337.6248,-476.903 343.6951,-468.2195 333.5347,-471.2222 337.6248,-476.903"/>
</g>
<!-- Same Title -->
<g id="node25" class="node">
<title>Same Title</title>
<polygon fill="none" stroke="#000000" points="187.5,-396 98.5,-396 98.5,-360 187.5,-360 187.5,-396"/>
<text text-anchor="middle" x="143" y="-374.3" font-family="Times-Roman" font-size="14.00" fill="#000000">Same Title</text>
</g>
<!-- Previous Title?&#45;&gt;Same Title -->
<g id="edge27" class="edge">
<title>Previous Title?&#45;&gt;Same Title</title>
<path fill="none" stroke="#000000" d="M255.0344,-506.0393C233.4816,-481.4076 191.8915,-433.876 165.8951,-404.1659"/>
<polygon fill="#000000" stroke="#000000" points="168.225,-401.5135 159.0059,-396.2925 162.957,-406.1231 168.225,-401.5135"/>
</g>
<!-- Search Content Dialog -->
<g id="node10" class="node">
<title>Search Content Dialog</title>
<polygon fill="none" stroke="#000000" points="532.8111,-396 272.2243,-396 205.1889,-360 465.7757,-360 532.8111,-396"/>
<text text-anchor="middle" x="369" y="-374.3" font-family="Times-Roman" font-size="14.00" fill="#000000">Search Content Dialog</text>
</g>
<!-- Search Content Dialog&#45;&gt;Cancel -->
<g id="edge36" class="edge">
<title>Search Content Dialog&#45;&gt;Cancel</title>
<path fill="none" stroke="#000000" d="M408.113,-359.8314C431.0504,-349.1766 459.9896,-335.7339 483.2107,-324.9473"/>
<polygon fill="#000000" stroke="#000000" points="484.8577,-328.0415 492.4525,-320.6543 481.9086,-321.693 484.8577,-328.0415"/>
</g>
<!-- New Content -->
<g id="node29" class="node">
<title>New Content</title>
<polygon fill="none" stroke="#000000" points="430,-324 324,-324 324,-288 430,-288 430,-324"/>
<text text-anchor="middle" x="377" y="-302.3" font-family="Times-Roman" font-size="14.00" fill="#000000">New Content</text>
</g>
<!-- Search Content Dialog&#45;&gt;New Content -->
<g id="edge37" class="edge">
<title>Search Content Dialog&#45;&gt;New Content</title>
<path fill="none" stroke="#000000" d="M371.0187,-359.8314C371.8743,-352.131 372.8917,-342.9743 373.8426,-334.4166"/>
<polygon fill="#000000" stroke="#000000" points="377.3283,-334.7386 374.9541,-324.4133 370.3711,-333.9656 377.3283,-334.7386"/>
</g>
<!-- Overwrite Content -->
<g id="node30" class="node">
<title>Overwrite Content</title>
<polygon fill="none" stroke="#000000" points="306,-324 162,-324 162,-288 306,-288 306,-324"/>
<text text-anchor="middle" x="234" y="-302.3" font-family="Times-Roman" font-size="14.00" fill="#000000">Overwrite Content</text>
</g>
<!-- Search Content Dialog&#45;&gt;Overwrite Content -->
<g id="edge38" class="edge">
<title>Search Content Dialog&#45;&gt;Overwrite Content</title>
<path fill="none" stroke="#000000" d="M334.9338,-359.8314C317.3467,-350.4516 295.7084,-338.9112 276.9832,-328.9244"/>
<polygon fill="#000000" stroke="#000000" points="278.5259,-325.7805 268.0553,-324.1628 275.2318,-331.957 278.5259,-325.7805"/>
</g>
<!-- Publish Request -->
<g id="node11" class="node">
<title>Publish Request</title>
<polygon fill="none" stroke="#000000" points="221,-252 103.1955,-234 221,-216 338.8045,-234 221,-252"/>
<text text-anchor="middle" x="221" y="-230.3" font-family="Times-Roman" font-size="14.00" fill="#000000">Publish Request</text>
</g>
<!-- Failure1 -->
<g id="node26" class="node">
<title>Failure1</title>
<polygon fill="none" stroke="#000000" points="144,-180 82,-180 82,-144 144,-144 144,-180"/>
<text text-anchor="middle" x="113" y="-158.3" font-family="Times-Roman" font-size="14.00" fill="#000000">Failure</text>
</g>
<!-- Publish Request&#45;&gt;Failure1 -->
<g id="edge31" class="edge">
<title>Publish Request&#45;&gt;Failure1</title>
<path fill="none" stroke="#000000" d="M198.884,-219.256C184.3796,-209.5864 165.0939,-196.7292 148.4729,-185.6486"/>
<polygon fill="#000000" stroke="#000000" points="150.3255,-182.6772 140.0635,-180.0423 146.4426,-188.5016 150.3255,-182.6772"/>
</g>
<!-- Success1 -->
<g id="node27" class="node">
<title>Success1</title>
<polygon fill="none" stroke="#000000" points="257.5,-180 184.5,-180 184.5,-144 257.5,-144 257.5,-180"/>
<text text-anchor="middle" x="221" y="-158.3" font-family="Times-Roman" font-size="14.00" fill="#000000">Success</text>
</g>
<!-- Publish Request&#45;&gt;Success1 -->
<g id="edge32" class="edge">
<title>Publish Request&#45;&gt;Success1</title>
<path fill="none" stroke="#000000" d="M221,-215.8314C221,-208.131 221,-198.9743 221,-190.4166"/>
<polygon fill="#000000" stroke="#000000" points="224.5001,-190.4132 221,-180.4133 217.5001,-190.4133 224.5001,-190.4132"/>
</g>
<!-- Error Dialog -->
<g id="node13" class="node">
<title>Error Dialog</title>
<polygon fill="none" stroke="#000000" points="100,-1044 0,-1044 0,-1008 100,-1008 100,-1044"/>
<text text-anchor="middle" x="50" y="-1022.3" font-family="Times-Roman" font-size="14.00" fill="#000000">Error Dialog</text>
</g>
<!-- Failure&#45;&gt;Error Dialog -->
<g id="edge3" class="edge">
<title>Failure&#45;&gt;Error Dialog</title>
<path fill="none" stroke="#000000" d="M130.8823,-1263.9986C115.943,-1220.0392 77.5129,-1106.9576 59.5368,-1054.0624"/>
<polygon fill="#000000" stroke="#000000" points="62.759,-1052.6662 56.2274,-1044.3242 56.1313,-1054.9186 62.759,-1052.6662"/>
</g>
<!-- Error Dialog&#45;&gt;Done -->
<g id="edge4" class="edge">
<title>Error Dialog&#45;&gt;Done</title>
<path fill="none" stroke="#000000" d="M46.2704,-1007.9053C40.9981,-980.7046 32,-927.6021 32,-882 32,-882 32,-882 32,-162 32,-88.0621 124.6496,-47.0692 180.2116,-29.1335"/>
<polygon fill="#000000" stroke="#000000" points="181.2837,-32.4655 189.7905,-26.1501 179.202,-25.7822 181.2837,-32.4655"/>
</g>
<!-- Success&#45;&gt;Server\nmetadata? -->
<g id="edge6" class="edge">
<title>Success&#45;&gt;Server\nmetadata?</title>
<path fill="none" stroke="#000000" d="M239.4954,-1263.8238C243.8987,-1254.4027 249.4678,-1242.4876 254.8396,-1230.9942"/>
<polygon fill="#000000" stroke="#000000" points="258.0159,-1232.4643 259.0795,-1221.923 251.6744,-1229.5003 258.0159,-1232.4643"/>
</g>
<!-- No&#45;&gt;Add Server Dialog -->
<g id="edge9" class="edge">
<title>No&#45;&gt;Add Server Dialog</title>
<path fill="none" stroke="#000000" d="M403.9444,-1079.8314C414.0691,-1071.0485 426.3777,-1060.3712 437.3548,-1050.8489"/>
<polygon fill="#000000" stroke="#000000" points="439.8019,-1053.3595 445.0623,-1044.1628 435.2149,-1048.0718 439.8019,-1053.3595"/>
</g>
<!-- Yes&#45;&gt;Publish Dialog -->
<g id="edge12" class="edge">
<title>Yes&#45;&gt;Publish Dialog</title>
<path fill="none" stroke="#000000" d="M272.9001,-935.6665C271.7396,-904.7304 272.3674,-840.7693 293,-792 297.2848,-781.8719 304.0776,-772.1254 311.0559,-763.7673"/>
<polygon fill="#000000" stroke="#000000" points="313.7318,-766.0247 317.7275,-756.2122 308.4848,-761.3913 313.7318,-766.0247"/>
</g>
<!-- Cancel&#45;&gt;Done -->
<g id="edge13" class="edge">
<title>Cancel&#45;&gt;Done</title>
<path fill="none" stroke="#000000" d="M509.4437,-287.929C475.7758,-246.7642 388.8243,-144.0189 303,-72 287.5003,-58.9935 268.7443,-46.4387 253.0843,-36.7131"/>
<polygon fill="#000000" stroke="#000000" points="254.6285,-33.5552 244.2696,-31.3317 250.981,-39.5298 254.6285,-33.5552"/>
</g>
<!-- Invalid Details&#45;&gt;Add Server Dialog -->
<g id="edge16" class="edge">
<title>Invalid Details&#45;&gt;Add Server Dialog</title>
<path fill="none" stroke="#000000" d="M491.357,-900.0896C486.4046,-924.6805 477.4983,-968.905 471.6685,-997.8531"/>
<polygon fill="#000000" stroke="#000000" points="468.2161,-997.2681 469.6729,-1007.7623 475.0783,-998.6501 468.2161,-997.2681"/>
</g>
<!-- Save Server Info -->
<g id="node20" class="node">
<title>Save Server Info</title>
<polygon fill="none" stroke="#000000" points="434,-828 302,-828 302,-792 434,-792 434,-828"/>
<text text-anchor="middle" x="368" y="-806.3" font-family="Times-Roman" font-size="14.00" fill="#000000">Save Server Info</text>
</g>
<!-- Valid Details&#45;&gt;Save Server Info -->
<g id="edge17" class="edge">
<title>Valid Details&#45;&gt;Save Server Info</title>
<path fill="none" stroke="#000000" d="M368,-863.8314C368,-856.131 368,-846.9743 368,-838.4166"/>
<polygon fill="#000000" stroke="#000000" points="371.5001,-838.4132 368,-828.4133 364.5001,-838.4133 371.5001,-838.4132"/>
</g>
<!-- Save Server Info&#45;&gt;Publish Dialog -->
<g id="edge18" class="edge">
<title>Save Server Info&#45;&gt;Publish Dialog</title>
<path fill="none" stroke="#000000" d="M360.1774,-791.8314C356.7891,-783.9617 352.7459,-774.5712 348.9924,-765.8533"/>
<polygon fill="#000000" stroke="#000000" points="352.0973,-764.214 344.9279,-756.4133 345.6679,-766.9822 352.0973,-764.214"/>
</g>
<!-- Invalid1&#45;&gt;Publish Dialog -->
<g id="edge23" class="edge">
<title>Invalid1&#45;&gt;Publish Dialog</title>
<path fill="none" stroke="#000000" d="M394.4508,-612.2966C392.3447,-631.0011 387.5496,-660.5533 377,-684 372.6198,-693.7352 366.2607,-703.4097 359.8969,-711.8233"/>
<polygon fill="#000000" stroke="#000000" points="357.0672,-709.7591 353.6047,-719.7722 362.5557,-714.1037 357.0672,-709.7591"/>
</g>
<!-- Valid1&#45;&gt;Previous Title? -->
<g id="edge24" class="edge">
<title>Valid1&#45;&gt;Previous Title?</title>
<path fill="none" stroke="#000000" d="M269,-575.8314C269,-568.131 269,-558.9743 269,-550.4166"/>
<polygon fill="#000000" stroke="#000000" points="272.5001,-550.4132 269,-540.4133 265.5001,-550.4133 272.5001,-550.4132"/>
</g>
<!-- No2&#45;&gt;Search Content Dialog -->
<g id="edge28" class="edge">
<title>No2&#45;&gt;Search Content Dialog</title>
<path fill="none" stroke="#000000" d="M294.2342,-431.8314C306.788,-422.7927 322.1283,-411.7476 335.6391,-402.0198"/>
<polygon fill="#000000" stroke="#000000" points="337.7036,-404.8463 343.7739,-396.1628 333.6134,-399.1655 337.7036,-404.8463"/>
</g>
<!-- Different Title&#45;&gt;Search Content Dialog -->
<g id="edge30" class="edge">
<title>Different Title&#45;&gt;Search Content Dialog</title>
<path fill="none" stroke="#000000" d="M369,-431.8314C369,-424.131 369,-414.9743 369,-406.4166"/>
<polygon fill="#000000" stroke="#000000" points="372.5001,-406.4132 369,-396.4133 365.5001,-406.4133 372.5001,-406.4132"/>
</g>
<!-- Same Title&#45;&gt;Publish Request -->
<g id="edge29" class="edge">
<title>Same Title&#45;&gt;Publish Request</title>
<path fill="none" stroke="#000000" d="M141.0904,-359.8755C139.9356,-340.78 140.5987,-310.4248 153,-288 160.6466,-274.1728 173.4305,-262.6161 185.8633,-253.7885"/>
<polygon fill="#000000" stroke="#000000" points="187.9776,-256.5852 194.347,-248.1187 184.088,-250.7652 187.9776,-256.5852"/>
</g>
<!-- Failure1&#45;&gt;Publish Dialog -->
<g id="edge33" class="edge">
<title>Failure1&#45;&gt;Publish Dialog</title>
<path fill="none" stroke="#000000" d="M103.8808,-180.1214C91.2585,-206.924 70,-259.0365 70,-306 70,-594 70,-594 70,-594 70,-667.564 149.4879,-703.721 221.7224,-721.391"/>
<polygon fill="#000000" stroke="#000000" points="221.3232,-724.8921 231.8578,-723.7635 222.9188,-718.0763 221.3232,-724.8921"/>
</g>
<!-- Show Content Link -->
<g id="node28" class="node">
<title>Show Content Link</title>
<polygon fill="none" stroke="#000000" points="294,-108 148,-108 148,-72 294,-72 294,-108"/>
<text text-anchor="middle" x="221" y="-86.3" font-family="Times-Roman" font-size="14.00" fill="#000000">Show Content Link</text>
</g>
<!-- Success1&#45;&gt;Show Content Link -->
<g id="edge34" class="edge">
<title>Success1&#45;&gt;Show Content Link</title>
<path fill="none" stroke="#000000" d="M221,-143.8314C221,-136.131 221,-126.9743 221,-118.4166"/>
<polygon fill="#000000" stroke="#000000" points="224.5001,-118.4132 221,-108.4133 217.5001,-118.4133 224.5001,-118.4132"/>
</g>
<!-- Show Content Link&#45;&gt;Done -->
<g id="edge35" class="edge">
<title>Show Content Link&#45;&gt;Done</title>
<path fill="none" stroke="#000000" d="M221,-71.8314C221,-64.131 221,-54.9743 221,-46.4166"/>
<polygon fill="#000000" stroke="#000000" points="224.5001,-46.4132 221,-36.4133 217.5001,-46.4133 224.5001,-46.4132"/>
</g>
<!-- New Content&#45;&gt;Publish Request -->
<g id="edge39" class="edge">
<title>New Content&#45;&gt;Publish Request</title>
<path fill="none" stroke="#000000" d="M337.6346,-287.8314C313.7295,-276.7982 283.3473,-262.7757 259.5851,-251.8085"/>
<polygon fill="#000000" stroke="#000000" points="261.0492,-248.6295 250.5029,-247.6167 258.1157,-254.9852 261.0492,-248.6295"/>
</g>
<!-- Overwrite Content&#45;&gt;Publish Request -->
<g id="edge40" class="edge">
<title>Overwrite Content&#45;&gt;Publish Request</title>
<path fill="none" stroke="#000000" d="M230.7196,-287.8314C229.3078,-280.0125 227.625,-270.6923 226.0595,-262.0221"/>
<polygon fill="#000000" stroke="#000000" points="229.4556,-261.1324 224.2344,-251.9134 222.567,-262.3762 229.4556,-261.1324"/>
</g>
</g>
</svg>
