<?xml version="1.0" encoding="UTF-8" standalone="no"?>
<!DOCTYPE svg PUBLIC "-//W3C//DTD SVG 1.1//EN"
 "http://www.w3.org/Graphics/SVG/1.1/DTD/svg11.dtd">
<!-- Generated by graphviz version 2.40.1 (0)
 -->
<!-- Title: RSConnectJupyter Pages: 1 -->
<svg width="610pt" height="1412pt"
 viewBox="0.00 0.00 609.99 1412.00" xmlns="http://www.w3.org/2000/svg" xmlns:xlink="http://www.w3.org/1999/xlink">
<g id="graph0" class="graph" transform="scale(1 1) rotate(0) translate(4 1408)">
<title>RSConnectJupyter</title>
<polygon fill="#ffffff" stroke="transparent" points="-4,4 -4,-1408 605.9942,-1408 605.9942,4 -4,4"/>
<!-- Publish -->
<g id="node1" class="node">
<title>Publish</title>
<polygon fill="none" stroke="#000000" points="186.4942,-1404 119.4942,-1404 119.4942,-1368 186.4942,-1368 186.4942,-1404"/>
<text text-anchor="middle" x="152.9942" y="-1382.3" font-family="Times-Roman" font-size="14.00" fill="#000000">Publish</text>
</g>
<!-- Save -->
<g id="node2" class="node">
<title>Save</title>
<ellipse fill="none" stroke="#000000" cx="152.9942" cy="-1314" rx="32.4942" ry="18"/>
<text text-anchor="middle" x="152.9942" y="-1310.3" font-family="Times-Roman" font-size="14.00" fill="#000000">Save</text>
</g>
<!-- Publish&#45;&gt;Save -->
<g id="edge1" class="edge">
<title>Publish&#45;&gt;Save</title>
<path fill="none" stroke="#000000" d="M152.9942,-1367.8314C152.9942,-1360.131 152.9942,-1350.9743 152.9942,-1342.4166"/>
<polygon fill="#000000" stroke="#000000" points="156.4943,-1342.4132 152.9942,-1332.4133 149.4943,-1342.4133 156.4943,-1342.4132"/>
</g>
<!-- Failure -->
<g id="node3" class="node">
<title>Failure</title>
<ellipse fill="none" stroke="#000000" cx="99.9942" cy="-1242" rx="40.0939" ry="18"/>
<text text-anchor="middle" x="99.9942" y="-1238.3" font-family="Times-Roman" font-size="14.00" fill="#000000">Failure</text>
</g>
<!-- Save&#45;&gt;Failure -->
<g id="edge2" class="edge">
<title>Save&#45;&gt;Failure</title>
<path fill="none" stroke="#000000" d="M140.7018,-1297.3008C134.174,-1288.4329 126.0132,-1277.3465 118.7159,-1267.4332"/>
<polygon fill="#000000" stroke="#000000" points="121.335,-1265.0872 112.5881,-1259.1086 115.6976,-1269.2369 121.335,-1265.0872"/>
</g>
<!-- Success -->
<g id="node6" class="node">
<title>Success</title>
<ellipse fill="none" stroke="#000000" cx="208.9942" cy="-1242" rx="47.3916" ry="18"/>
<text text-anchor="middle" x="208.9942" y="-1238.3" font-family="Times-Roman" font-size="14.00" fill="#000000">Success</text>
</g>
<!-- Save&#45;&gt;Success -->
<g id="edge5" class="edge">
<title>Save&#45;&gt;Success</title>
<path fill="none" stroke="#000000" d="M165.9825,-1297.3008C172.8485,-1288.4731 181.4243,-1277.4471 189.1078,-1267.5682"/>
<polygon fill="#000000" stroke="#000000" points="191.9184,-1269.6555 195.2951,-1259.6132 186.3929,-1265.3579 191.9184,-1269.6555"/>
</g>
<!-- Error Dialog -->
<g id="node4" class="node">
<title>Error Dialog</title>
<ellipse fill="none" stroke="#000000" cx="64.9942" cy="-1026" rx="64.9885" ry="18"/>
<text text-anchor="middle" x="64.9942" y="-1022.3" font-family="Times-Roman" font-size="14.00" fill="#000000">Error Dialog</text>
</g>
<!-- Failure&#45;&gt;Error Dialog -->
<g id="edge3" class="edge">
<title>Failure&#45;&gt;Error Dialog</title>
<path fill="none" stroke="#000000" d="M97.0704,-1223.9555C90.9711,-1186.3144 76.8532,-1099.1867 69.5515,-1054.1246"/>
<polygon fill="#000000" stroke="#000000" points="72.9889,-1053.4565 67.9344,-1044.1451 66.0791,-1054.5762 72.9889,-1053.4565"/>
</g>
<!-- Done -->
<g id="node5" class="node">
<title>Done</title>
<polygon fill="none" stroke="#000000" points="160.9942,-36 106.9942,-36 106.9942,0 160.9942,0 160.9942,-36"/>
<text text-anchor="middle" x="133.9942" y="-14.3" font-family="Times-Roman" font-size="14.00" fill="#000000">Done</text>
</g>
<!-- Error Dialog&#45;&gt;Done -->
<g id="edge4" class="edge">
<title>Error Dialog&#45;&gt;Done</title>
<path fill="none" stroke="#000000" d="M64.9942,-1007.8146C64.9942,-980.4983 64.9942,-927.25 64.9942,-882 64.9942,-882 64.9942,-882 64.9942,-162 64.9942,-117.474 92.1557,-72.1354 112.3958,-44.5313"/>
<polygon fill="#000000" stroke="#000000" points="115.4435,-46.3037 118.6809,-36.2156 109.859,-42.0829 115.4435,-46.3037"/>
</g>
<!-- Server metadata? -->
<g id="node7" class="node">
<title>Server metadata?</title>
<ellipse fill="none" stroke="#000000" cx="240.9942" cy="-1170" rx="90.9839" ry="18"/>
<text text-anchor="middle" x="240.9942" y="-1166.3" font-family="Times-Roman" font-size="14.00" fill="#000000">Server metadata?</text>
</g>
<!-- Success&#45;&gt;Server metadata? -->
<g id="edge6" class="edge">
<title>Success&#45;&gt;Server metadata?</title>
<path fill="none" stroke="#000000" d="M216.9043,-1224.2022C220.4926,-1216.1287 224.8175,-1206.3976 228.8067,-1197.422"/>
<polygon fill="#000000" stroke="#000000" points="232.0897,-1198.6527 232.9528,-1188.0931 225.6931,-1195.8097 232.0897,-1198.6527"/>
</g>
<!-- No -->
<g id="node8" class="node">
<title>No</title>
<ellipse fill="none" stroke="#000000" cx="240.9942" cy="-1098" rx="27" ry="18"/>
<text text-anchor="middle" x="240.9942" y="-1094.3" font-family="Times-Roman" font-size="14.00" fill="#000000">No</text>
</g>
<!-- Server metadata?&#45;&gt;No -->
<g id="edge7" class="edge">
<title>Server metadata?&#45;&gt;No</title>
<path fill="none" stroke="#000000" d="M240.9942,-1151.8314C240.9942,-1144.131 240.9942,-1134.9743 240.9942,-1126.4166"/>
<polygon fill="#000000" stroke="#000000" points="244.4943,-1126.4132 240.9942,-1116.4133 237.4943,-1126.4133 244.4943,-1126.4132"/>
</g>
<!-- Yes -->
<g id="node9" class="node">
<title>Yes</title>
<ellipse fill="none" stroke="#000000" cx="445.9942" cy="-954" rx="27" ry="18"/>
<text text-anchor="middle" x="445.9942" y="-950.3" font-family="Times-Roman" font-size="14.00" fill="#000000">Yes</text>
</g>
<!-- Server metadata?&#45;&gt;Yes -->
<g id="edge8" class="edge">
<title>Server metadata?&#45;&gt;Yes</title>
<path fill="none" stroke="#000000" d="M258.1198,-1151.9555C295.2623,-1112.82 383.1744,-1020.1907 424.2014,-976.9622"/>
<polygon fill="#000000" stroke="#000000" points="426.9483,-979.1522 431.2936,-969.4895 421.8709,-974.3334 426.9483,-979.1522"/>
</g>
<!-- Add Server Dialog -->
<g id="node10" class="node">
<title>Add Server Dialog</title>
<ellipse fill="none" stroke="#000000" cx="240.9942" cy="-1026" rx="92.8835" ry="18"/>
<text text-anchor="middle" x="240.9942" y="-1022.3" font-family="Times-Roman" font-size="14.00" fill="#000000">Add Server Dialog</text>
</g>
<!-- No&#45;&gt;Add Server Dialog -->
<g id="edge9" class="edge">
<title>No&#45;&gt;Add Server Dialog</title>
<path fill="none" stroke="#000000" d="M240.9942,-1079.8314C240.9942,-1072.131 240.9942,-1062.9743 240.9942,-1054.4166"/>
<polygon fill="#000000" stroke="#000000" points="244.4943,-1054.4132 240.9942,-1044.4133 237.4943,-1054.4133 244.4943,-1054.4132"/>
</g>
<!-- Publish Dialog -->
<g id="node13" class="node">
<title>Publish Dialog</title>
<ellipse fill="none" stroke="#000000" cx="378.9942" cy="-738" rx="74.9875" ry="18"/>
<text text-anchor="middle" x="378.9942" y="-734.3" font-family="Times-Roman" font-size="14.00" fill="#000000">Publish Dialog</text>
</g>
<!-- Yes&#45;&gt;Publish Dialog -->
<g id="edge12" class="edge">
<title>Yes&#45;&gt;Publish Dialog</title>
<path fill="none" stroke="#000000" d="M452.3373,-936.2526C462.3343,-905.0939 478.2579,-839.3683 453.9942,-792 447.1,-778.5409 435.1163,-767.6726 422.7252,-759.3119"/>
<polygon fill="#000000" stroke="#000000" points="424.4698,-756.2746 414.1392,-753.9233 420.7487,-762.2037 424.4698,-756.2746"/>
</g>
<!-- Cancel -->
<g id="node11" class="node">
<title>Cancel</title>
<ellipse fill="none" stroke="#000000" cx="133.9942" cy="-306" rx="40.8928" ry="18"/>
<text text-anchor="middle" x="133.9942" y="-302.3" font-family="Times-Roman" font-size="14.00" fill="#000000">Cancel</text>
</g>
<!-- Add Server Dialog&#45;&gt;Cancel -->
<g id="edge10" class="edge">
<title>Add Server Dialog&#45;&gt;Cancel</title>
<path fill="none" stroke="#000000" d="M210.9773,-1008.811C174.2791,-985.2997 116.9942,-939.4054 116.9942,-882 116.9942,-882 116.9942,-882 116.9942,-450 116.9942,-409.5973 123.6761,-363.2552 128.6616,-334.3013"/>
<polygon fill="#000000" stroke="#000000" points="132.1699,-334.5623 130.4718,-324.1045 125.2777,-333.3387 132.1699,-334.5623"/>
</g>
<!-- Add -->
<g id="node12" class="node">
<title>Add</title>
<ellipse fill="none" stroke="#000000" cx="276.9942" cy="-954" rx="28.6953" ry="18"/>
<text text-anchor="middle" x="276.9942" y="-950.3" font-family="Times-Roman" font-size="14.00" fill="#000000">Add</text>
</g>
<!-- Add Server Dialog&#45;&gt;Add -->
<g id="edge11" class="edge">
<title>Add Server Dialog&#45;&gt;Add</title>
<path fill="none" stroke="#000000" d="M250.0786,-1007.8314C254.2217,-999.5451 259.2079,-989.5727 263.7568,-980.4748"/>
<polygon fill="#000000" stroke="#000000" points="266.9437,-981.9273 268.2854,-971.4177 260.6827,-978.7967 266.9437,-981.9273"/>
</g>
<!-- Cancel&#45;&gt;Done -->
<g id="edge13" class="edge">
<title>Cancel&#45;&gt;Done</title>
<path fill="none" stroke="#000000" d="M133.9942,-287.9843C133.9942,-239.2939 133.9942,-104.7961 133.9942,-46.0573"/>
<polygon fill="#000000" stroke="#000000" points="137.4943,-46.0088 133.9942,-36.0089 130.4943,-46.0089 137.4943,-46.0088"/>
</g>
<!-- Invalid Details -->
<g id="node14" class="node">
<title>Invalid Details</title>
<ellipse fill="none" stroke="#000000" cx="219.9942" cy="-882" rx="74.9875" ry="18"/>
<text text-anchor="middle" x="219.9942" y="-878.3" font-family="Times-Roman" font-size="14.00" fill="#000000">Invalid Details</text>
</g>
<!-- Add&#45;&gt;Invalid Details -->
<g id="edge14" class="edge">
<title>Add&#45;&gt;Invalid Details</title>
<path fill="none" stroke="#000000" d="M264.0601,-937.6621C257.0802,-928.8454 248.3035,-917.759 240.4238,-907.8058"/>
<polygon fill="#000000" stroke="#000000" points="243.0262,-905.4542 234.075,-899.7862 237.5379,-909.7992 243.0262,-905.4542"/>
</g>
<!-- Valid Details -->
<g id="node15" class="node">
<title>Valid Details</title>
<ellipse fill="none" stroke="#000000" cx="378.9942" cy="-882" rx="66.0889" ry="18"/>
<text text-anchor="middle" x="378.9942" y="-878.3" font-family="Times-Roman" font-size="14.00" fill="#000000">Valid Details</text>
</g>
<!-- Add&#45;&gt;Valid Details -->
<g id="edge15" class="edge">
<title>Add&#45;&gt;Valid Details</title>
<path fill="none" stroke="#000000" d="M296.1797,-940.4574C310.3327,-930.4669 329.9284,-916.6347 346.5053,-904.9334"/>
<polygon fill="#000000" stroke="#000000" points="348.7027,-907.6665 354.854,-899.0402 344.6659,-901.9477 348.7027,-907.6665"/>
</g>
<!-- Publish Dialog&#45;&gt;Cancel -->
<g id="edge19" class="edge">
<title>Publish Dialog&#45;&gt;Cancel</title>
<path fill="none" stroke="#000000" d="M321.1918,-726.4391C256.0096,-709.6405 158.9942,-671.603 158.9942,-594 158.9942,-594 158.9942,-594 158.9942,-450 158.9942,-409.0964 149.0812,-362.6076 141.7396,-333.7868"/>
<polygon fill="#000000" stroke="#000000" points="145.0979,-332.7952 139.1742,-324.0111 138.3272,-334.572 145.0979,-332.7952"/>
</g>
<!-- Publish1 -->
<g id="node17" class="node">
<title>Publish1</title>
<ellipse fill="none" stroke="#000000" cx="378.9942" cy="-666" rx="43.5923" ry="18"/>
<text text-anchor="middle" x="378.9942" y="-662.3" font-family="Times-Roman" font-size="14.00" fill="#000000">Publish</text>
</g>
<!-- Publish Dialog&#45;&gt;Publish1 -->
<g id="edge20" class="edge">
<title>Publish Dialog&#45;&gt;Publish1</title>
<path fill="none" stroke="#000000" d="M378.9942,-719.8314C378.9942,-712.131 378.9942,-702.9743 378.9942,-694.4166"/>
<polygon fill="#000000" stroke="#000000" points="382.4943,-694.4132 378.9942,-684.4133 375.4943,-694.4133 382.4943,-694.4132"/>
</g>
<!-- Invalid Details&#45;&gt;Add Server Dialog -->
<g id="edge16" class="edge">
<title>Invalid Details&#45;&gt;Add Server Dialog</title>
<path fill="none" stroke="#000000" d="M222.6323,-900.0896C226.2185,-924.6805 232.6679,-968.905 236.8895,-997.8531"/>
<polygon fill="#000000" stroke="#000000" points="233.428,-998.3721 238.3346,-1007.7623 240.3548,-997.3619 233.428,-998.3721"/>
</g>
<!-- Save Server -->
<g id="node16" class="node">
<title>Save Server</title>
<ellipse fill="none" stroke="#000000" cx="378.9942" cy="-810" rx="65.7887" ry="18"/>
<text text-anchor="middle" x="378.9942" y="-806.3" font-family="Times-Roman" font-size="14.00" fill="#000000">Save Server</text>
</g>
<!-- Valid Details&#45;&gt;Save Server -->
<g id="edge17" class="edge">
<title>Valid Details&#45;&gt;Save Server</title>
<path fill="none" stroke="#000000" d="M378.9942,-863.8314C378.9942,-856.131 378.9942,-846.9743 378.9942,-838.4166"/>
<polygon fill="#000000" stroke="#000000" points="382.4943,-838.4132 378.9942,-828.4133 375.4943,-838.4133 382.4943,-838.4132"/>
</g>
<!-- Save Server&#45;&gt;Publish Dialog -->
<g id="edge18" class="edge">
<title>Save Server&#45;&gt;Publish Dialog</title>
<path fill="none" stroke="#000000" d="M378.9942,-791.8314C378.9942,-784.131 378.9942,-774.9743 378.9942,-766.4166"/>
<polygon fill="#000000" stroke="#000000" points="382.4943,-766.4132 378.9942,-756.4133 375.4943,-766.4133 382.4943,-766.4132"/>
</g>
<!-- Invalid1 -->
<g id="node18" class="node">
<title>Invalid1</title>
<ellipse fill="none" stroke="#000000" cx="274.9942" cy="-594" rx="74.9875" ry="18"/>
<text text-anchor="middle" x="274.9942" y="-590.3" font-family="Times-Roman" font-size="14.00" fill="#000000">Invalid Details</text>
</g>
<!-- Publish1&#45;&gt;Invalid1 -->
<g id="edge21" class="edge">
<title>Publish1&#45;&gt;Invalid1</title>
<path fill="none" stroke="#000000" d="M356.4278,-650.3771C342.314,-640.606 323.8869,-627.8487 308.1319,-616.9415"/>
<polygon fill="#000000" stroke="#000000" points="309.9127,-613.9174 299.6985,-611.1029 305.9282,-619.6728 309.9127,-613.9174"/>
</g>
<!-- Valid1 -->
<g id="node19" class="node">
<title>Valid1</title>
<ellipse fill="none" stroke="#000000" cx="433.9942" cy="-594" rx="66.0889" ry="18"/>
<text text-anchor="middle" x="433.9942" y="-590.3" font-family="Times-Roman" font-size="14.00" fill="#000000">Valid Details</text>
</g>
<!-- Publish1&#45;&gt;Valid1 -->
<g id="edge22" class="edge">
<title>Publish1&#45;&gt;Valid1</title>
<path fill="none" stroke="#000000" d="M392.3082,-648.5708C398.898,-639.9441 406.9845,-629.3582 414.2757,-619.8134"/>
<polygon fill="#000000" stroke="#000000" points="417.1317,-621.8403 420.4208,-611.7689 411.569,-617.591 417.1317,-621.8403"/>
</g>
<!-- Invalid1&#45;&gt;Publish Dialog -->
<g id="edge23" class="edge">
<title>Invalid1&#45;&gt;Publish Dialog</title>
<path fill="none" stroke="#000000" d="M283.4906,-612.0939C292.7123,-630.8961 308.4843,-660.7649 325.9942,-684 333.7765,-694.3268 343.4103,-704.6961 352.321,-713.5483"/>
<polygon fill="#000000" stroke="#000000" points="349.9659,-716.14 359.5794,-720.5932 354.8412,-711.1169 349.9659,-716.14"/>
</g>
<!-- Previous Title? -->
<g id="node21" class="node">
<title>Previous Title?</title>
<ellipse fill="none" stroke="#000000" cx="418.9942" cy="-522" rx="75.2868" ry="18"/>
<text text-anchor="middle" x="418.9942" y="-518.3" font-family="Times-Roman" font-size="14.00" fill="#000000">Previous Title?</text>
</g>
<!-- Valid1&#45;&gt;Previous Title? -->
<g id="edge24" class="edge">
<title>Valid1&#45;&gt;Previous Title?</title>
<path fill="none" stroke="#000000" d="M430.2091,-575.8314C428.6048,-568.131 426.6972,-558.9743 424.9144,-550.4166"/>
<polygon fill="#000000" stroke="#000000" points="428.2964,-549.4892 422.8303,-540.4133 421.4435,-550.9169 428.2964,-549.4892"/>
</g>
<!-- No2 -->
<g id="node20" class="node">
<title>No2</title>
<ellipse fill="none" stroke="#000000" cx="300.9942" cy="-450" rx="27" ry="18"/>
<text text-anchor="middle" x="300.9942" y="-446.3" font-family="Times-Roman" font-size="14.00" fill="#000000">No</text>
</g>
<!-- Search Content Dialog -->
<g id="node24" class="node">
<title>Search Content Dialog</title>
<ellipse fill="none" stroke="#000000" cx="300.9942" cy="-378" rx="111.5806" ry="18"/>
<text text-anchor="middle" x="300.9942" y="-374.3" font-family="Times-Roman" font-size="14.00" fill="#000000">Search Content Dialog</text>
</g>
<!-- No2&#45;&gt;Search Content Dialog -->
<g id="edge28" class="edge">
<title>No2&#45;&gt;Search Content Dialog</title>
<path fill="none" stroke="#000000" d="M300.9942,-431.8314C300.9942,-424.131 300.9942,-414.9743 300.9942,-406.4166"/>
<polygon fill="#000000" stroke="#000000" points="304.4943,-406.4132 300.9942,-396.4133 297.4943,-406.4133 304.4943,-406.4132"/>
</g>
<!-- Previous Title?&#45;&gt;No2 -->
<g id="edge25" class="edge">
<title>Previous Title?&#45;&gt;No2</title>
<path fill="none" stroke="#000000" d="M391.3285,-505.1192C372.8297,-493.8318 348.5415,-479.0119 329.8093,-467.5821"/>
<polygon fill="#000000" stroke="#000000" points="331.469,-464.4947 321.1095,-462.2737 327.8229,-470.4702 331.469,-464.4947"/>
</g>
<!-- Different Title -->
<g id="node22" class="node">
<title>Different Title</title>
<ellipse fill="none" stroke="#000000" cx="416.9942" cy="-450" rx="71.4873" ry="18"/>
<text text-anchor="middle" x="416.9942" y="-446.3" font-family="Times-Roman" font-size="14.00" fill="#000000">Different Title</text>
</g>
<!-- Previous Title?&#45;&gt;Different Title -->
<g id="edge26" class="edge">
<title>Previous Title?&#45;&gt;Different Title</title>
<path fill="none" stroke="#000000" d="M418.4895,-503.8314C418.2756,-496.131 418.0213,-486.9743 417.7836,-478.4166"/>
<polygon fill="#000000" stroke="#000000" points="421.2821,-478.3122 417.5057,-468.4133 414.2848,-478.5066 421.2821,-478.3122"/>
</g>
<!-- Same Title -->
<g id="node23" class="node">
<title>Same Title</title>
<ellipse fill="none" stroke="#000000" cx="515.9942" cy="-378" rx="57.6901" ry="18"/>
<text text-anchor="middle" x="515.9942" y="-374.3" font-family="Times-Roman" font-size="14.00" fill="#000000">Same Title</text>
</g>
<!-- Previous Title?&#45;&gt;Same Title -->
<g id="edge27" class="edge">
<title>Previous Title?&#45;&gt;Same Title</title>
<path fill="none" stroke="#000000" d="M453.1762,-505.9521C468.8229,-496.9228 486.2355,-484.1853 496.9942,-468 509.1704,-449.6823 513.7443,-425.023 515.3718,-406.1484"/>
<polygon fill="#000000" stroke="#000000" points="518.8712,-406.2678 516.0137,-396.0656 511.8853,-405.823 518.8712,-406.2678"/>
</g>
<!-- Different Title&#45;&gt;Search Content Dialog -->
<g id="edge30" class="edge">
<title>Different Title&#45;&gt;Search Content Dialog</title>
<path fill="none" stroke="#000000" d="M390.0899,-433.3008C374.5875,-423.6786 354.8772,-411.4446 337.939,-400.9312"/>
<polygon fill="#000000" stroke="#000000" points="339.7132,-397.9131 329.371,-395.6132 336.0217,-403.8606 339.7132,-397.9131"/>
</g>
<!-- Publish Request -->
<g id="node25" class="node">
<title>Publish Request</title>
<ellipse fill="none" stroke="#000000" cx="441.9942" cy="-234" rx="83.3857" ry="18"/>
<text text-anchor="middle" x="441.9942" y="-230.3" font-family="Times-Roman" font-size="14.00" fill="#000000">Publish Request</text>
</g>
<!-- Same Title&#45;&gt;Publish Request -->
<g id="edge29" class="edge">
<title>Same Title&#45;&gt;Publish Request</title>
<path fill="none" stroke="#000000" d="M529.9367,-360.4094C543.1071,-341.4936 558.9274,-311.0366 544.9942,-288 535.3402,-272.0383 519.2388,-260.5644 502.6011,-252.4178"/>
<polygon fill="#000000" stroke="#000000" points="503.8939,-249.1612 493.3404,-248.227 501.0079,-255.5386 503.8939,-249.1612"/>
</g>
<!-- Search Content Dialog&#45;&gt;Cancel -->
<g id="edge36" class="edge">
<title>Search Content Dialog&#45;&gt;Cancel</title>
<path fill="none" stroke="#000000" d="M261.8402,-361.1192C234.9653,-349.5324 199.4564,-334.2232 172.6822,-322.6798"/>
<polygon fill="#000000" stroke="#000000" points="173.814,-319.3564 163.2454,-318.6113 171.0426,-325.7844 173.814,-319.3564"/>
</g>
<!-- New Content -->
<g id="node29" class="node">
<title>New Content</title>
<ellipse fill="none" stroke="#000000" cx="261.9942" cy="-306" rx="68.7879" ry="18"/>
<text text-anchor="middle" x="261.9942" y="-302.3" font-family="Times-Roman" font-size="14.00" fill="#000000">New Content</text>
</g>
<!-- Search Content Dialog&#45;&gt;New Content -->
<g id="edge37" class="edge">
<title>Search Content Dialog&#45;&gt;New Content</title>
<path fill="none" stroke="#000000" d="M291.1529,-359.8314C286.7315,-351.6688 281.4238,-341.87 276.5557,-332.8827"/>
<polygon fill="#000000" stroke="#000000" points="279.5377,-331.0393 271.6973,-323.9134 273.3827,-334.3734 279.5377,-331.0393"/>
</g>
<!-- Overwrite Content -->
<g id="node30" class="node">
<title>Overwrite Content</title>
<ellipse fill="none" stroke="#000000" cx="441.9942" cy="-306" rx="93.6835" ry="18"/>
<text text-anchor="middle" x="441.9942" y="-302.3" font-family="Times-Roman" font-size="14.00" fill="#000000">Overwrite Content</text>
</g>
<!-- Search Content Dialog&#45;&gt;Overwrite Content -->
<g id="edge38" class="edge">
<title>Search Content Dialog&#45;&gt;Overwrite Content</title>
<path fill="none" stroke="#000000" d="M334.7672,-360.7542C354.3549,-350.752 379.1903,-338.0701 400.0261,-327.4305"/>
<polygon fill="#000000" stroke="#000000" points="401.669,-330.5216 408.9833,-322.8566 398.4855,-324.2874 401.669,-330.5216"/>
</g>
<!-- Failure1 -->
<g id="node26" class="node">
<title>Failure1</title>
<ellipse fill="none" stroke="#000000" cx="513.9942" cy="-162" rx="40.0939" ry="18"/>
<text text-anchor="middle" x="513.9942" y="-158.3" font-family="Times-Roman" font-size="14.00" fill="#000000">Failure</text>
</g>
<!-- Publish Request&#45;&gt;Failure1 -->
<g id="edge31" class="edge">
<title>Publish Request&#45;&gt;Failure1</title>
<path fill="none" stroke="#000000" d="M459.792,-216.2022C468.9509,-207.0434 480.2428,-195.7514 490.1452,-185.849"/>
<polygon fill="#000000" stroke="#000000" points="492.7922,-188.1518 497.3884,-178.6058 487.8424,-183.202 492.7922,-188.1518"/>
</g>
<!-- Success1 -->
<g id="node27" class="node">
<title>Success1</title>
<ellipse fill="none" stroke="#000000" cx="368.9942" cy="-162" rx="47.3916" ry="18"/>
<text text-anchor="middle" x="368.9942" y="-158.3" font-family="Times-Roman" font-size="14.00" fill="#000000">Success</text>
</g>
<!-- Publish Request&#45;&gt;Success1 -->
<g id="edge32" class="edge">
<title>Publish Request&#45;&gt;Success1</title>
<path fill="none" stroke="#000000" d="M423.9493,-216.2022C414.7978,-207.1761 403.5458,-196.0783 393.6119,-186.2804"/>
<polygon fill="#000000" stroke="#000000" points="395.9064,-183.6275 386.3289,-179.0972 390.9909,-188.6113 395.9064,-183.6275"/>
</g>
<!-- Failure1&#45;&gt;Publish Dialog -->
<g id="edge33" class="edge">
<title>Failure1&#45;&gt;Publish Dialog</title>
<path fill="none" stroke="#000000" d="M532.2279,-178.1819C558.0036,-202.9428 601.9942,-252.9695 601.9942,-306 601.9942,-594 601.9942,-594 601.9942,-594 601.9942,-668.5199 513.0248,-706.3518 447.4788,-724.1118"/>
<polygon fill="#000000" stroke="#000000" points="446.3788,-720.7815 437.5849,-726.6905 448.1443,-727.5552 446.3788,-720.7815"/>
</g>
<!-- Show Content Link -->
<g id="node28" class="node">
<title>Show Content Link</title>
<ellipse fill="none" stroke="#000000" cx="276.9942" cy="-90" rx="94.7833" ry="18"/>
<text text-anchor="middle" x="276.9942" y="-86.3" font-family="Times-Roman" font-size="14.00" fill="#000000">Show Content Link</text>
</g>
<!-- Success1&#45;&gt;Show Content Link -->
<g id="edge34" class="edge">
<title>Success1&#45;&gt;Show Content Link</title>
<path fill="none" stroke="#000000" d="M348.118,-145.6621C336.0885,-136.2477 320.7523,-124.2454 307.403,-113.7981"/>
<polygon fill="#000000" stroke="#000000" points="309.4273,-110.938 299.3952,-107.5312 305.1132,-116.4506 309.4273,-110.938"/>
</g>
<!-- Show Content Link&#45;&gt;Done -->
<g id="edge35" class="edge">
<title>Show Content Link&#45;&gt;Done</title>
<path fill="none" stroke="#000000" d="M243.4671,-73.1192C221.5083,-62.063 192.818,-47.6175 170.3175,-36.2886"/>
<polygon fill="#000000" stroke="#000000" points="171.5969,-33.0142 161.0911,-31.6432 168.4489,-39.2665 171.5969,-33.0142"/>
</g>
<!-- New Content&#45;&gt;Publish Request -->
<g id="edge39" class="edge">
<title>New Content&#45;&gt;Publish Request</title>
<path fill="none" stroke="#000000" d="M299.7281,-290.9064C326.6804,-280.1255 363.2027,-265.5166 392.4938,-253.8002"/>
<polygon fill="#000000" stroke="#000000" points="394.1409,-256.911 402.1258,-249.9474 391.5411,-250.4117 394.1409,-256.911"/>
</g>
<!-- Overwrite Content&#45;&gt;Publish Request -->
<g id="edge40" class="edge">
<title>Overwrite Content&#45;&gt;Publish Request</title>
<path fill="none" stroke="#000000" d="M441.9942,-287.8314C441.9942,-280.131 441.9942,-270.9743 441.9942,-262.4166"/>
<polygon fill="#000000" stroke="#000000" points="445.4943,-262.4132 441.9942,-252.4133 438.4943,-262.4133 445.4943,-262.4132"/>
</g>
</g>
</svg>
